<?xml version='1.0' encoding='utf-8'?>
<svg xmlns="http://www.w3.org/2000/svg" xmlns:dc="http://purl.org/dc/elements/1.1/" xmlns:ns1="http://www.inkscape.org/namespaces/inkscape" xmlns:ns2="http://sodipodi.sourceforge.net/DTD/sodipodi-0.dtd" xmlns:ns4="http://creativecommons.org/ns#" xmlns:rdf="http://www.w3.org/1999/02/22-rdf-syntax-ns#" width="391.86316" height="183.79448" viewBox="0 0 103.68046 48.628959" version="1.1" id="svg8" ns1:version="0.92.5 (2060ec1f9f, 2020-04-08)" ns2:docname="Planet_Hollywood_logo.svg">
  <defs id="defs2">
    <clipPath id="clipPath831" clipPathUnits="userSpaceOnUse">
      <path ns1:connector-curvature="0" id="path829" d="M 0,288 H 252 V 0 H 0 Z" />
    </clipPath>
    <clipPath id="clipPath839" clipPathUnits="userSpaceOnUse">
      <path ns1:connector-curvature="0" id="path837" d="M 36.095,68.757 H 227.234 V 226.78 H 36.095 Z" />
    </clipPath>
    <clipPath id="clipPath959" clipPathUnits="userSpaceOnUse">
      <path ns1:connector-curvature="0" id="path957" d="M 0,288 H 252 V 0 H 0 Z" />
    </clipPath>
    <clipPath id="clipPath967" clipPathUnits="userSpaceOnUse">
      <path ns1:connector-curvature="0" id="path965" d="M 36.095,68.757 H 227.234 V 226.78 H 36.095 Z" />
    </clipPath>
    <clipPath id="clipPath1196" clipPathUnits="userSpaceOnUse">
      <path ns1:connector-curvature="0" id="path1194" d="M 0,121.138 H 555.18 V 0 H 0 Z" />
    </clipPath>
    <linearGradient id="linearGradient1254" spreadMethod="pad" gradientTransform="matrix(71.712563,71.712563,-71.712563,71.712563,28.725586,26.376953)" gradientUnits="userSpaceOnUse" y2="0" x2="1" y1="0" x1="0">
      <stop id="stop1240" offset="0" style="stop-opacity:1;stop-color:#FF6622" />
      <stop id="stop1242" offset="0.04272411" style="stop-opacity:1;stop-color:#FF6622" />
      <stop id="stop1244" offset="0.359551" style="stop-opacity:1;stop-color:#fff200" />
      <stop id="stop1246" offset="0.50872118" style="stop-opacity:1;stop-color:#fff200" />
      <stop id="stop1248" offset="0.634832" style="stop-opacity:1;stop-color:#ffcb05" />
      <stop id="stop1250" offset="0.9695077" style="stop-opacity:1;stop-color:#FF6622" />
      <stop id="stop1252" offset="1" style="stop-opacity:1;stop-color:#FF6622" />
    </linearGradient>
    <radialGradient id="radialGradient1278" spreadMethod="pad" gradientTransform="matrix(51.155243,0,0,51.110783,64.631836,61.978516)" gradientUnits="userSpaceOnUse" r="1" cy="0" cx="0" fy="0" fx="0">
      <stop id="stop1270" offset="0" style="stop-opacity:1;stop-color:#FF4466" />
      <stop id="stop1272" offset="0.814607" style="stop-opacity:1;stop-color:#FF4466" />
      <stop id="stop1274" offset="0.82565195" style="stop-opacity:1;stop-color:#FF4466" />
      <stop id="stop1276" offset="1" style="stop-opacity:1;stop-color:#FF3355" />
    </radialGradient>
    <clipPath id="clipPath1288" clipPathUnits="userSpaceOnUse">
      <path ns1:connector-curvature="0" id="path1286" d="M 0,121.138 H 555.18 V 0 H 0 Z" />
    </clipPath>
  </defs>
  <ns2:namedview id="base" pagecolor="#ffffff" bordercolor="#666666" borderopacity="1.0" ns1:pageopacity="0.0" ns1:pageshadow="2" ns1:zoom="1.6821407" ns1:cx="264.28744" ns1:cy="113.53789" ns1:document-units="mm" ns1:current-layer="g823" showgrid="false" units="px" fit-margin-top="0" fit-margin-left="0" fit-margin-right="0" fit-margin-bottom="0" ns1:window-width="1920" ns1:window-height="1017" ns1:window-x="1912" ns1:window-y="70" ns1:window-maximized="1" />
  <metadata id="metadata5">
    <rdf:RDF>
      <ns4:Work rdf:about="">
        <dc:format>image/svg+xml</dc:format>
        <dc:type rdf:resource="http://purl.org/dc/dcmitype/StillImage" />
        <dc:title />
      </ns4:Work>
    </rdf:RDF>
  </metadata>
  <g ns1:label="Layer 1" ns1:groupmode="layer" id="layer1" transform="translate(-69.509961,-134.5303)">
    <g transform="matrix(0.35277777,0,0,-0.35277777,144.28552,257.92313)" ns1:label="Mirage_Hotel_and_Casino" id="g823">
      <g style="overflow:visible" id="g2263" transform="matrix(0.71318045,0,0,-0.71318045,-220.30429,375.89286)">
        <polyline id="polyline2094" points="247.844,81.124 247.849,81.163 247.844,81.124 " fill="#FF4520" stroke="none" />
        <polyline id="polyline2096" points="231.817,80.596 231.817,81.193 231.861,80.455 231.817,80.596 " fill="#FFE500" stroke="none" />
        <polyline id="polyline2098" points="247.849,81.214 247.849,81.163 247.849,81.214 " fill="#FF9900" stroke="none" />
        <polyline id="polyline2100" points="247.849,81.214 247.849,81.163 247.849,81.214 " fill="#E02050" stroke="none" />
        <path id="path2102" d="m 158.55,90.946 c -0.826,-28.523 21.083,-52.419 49.307,-54.32 -0.686,-0.006 -1.371,-0.009 -2.065,0.014 -28.531,0.823 -50.988,24.626 -50.161,53.156 0.55,18.817 11.091,34.985 26.384,43.578 -13.719,-9.198 -22.948,-24.657 -23.465,-42.428" ns1:connector-curvature="0" fill="url(#linearGradient1254)" />
        <polyline id="polyline2104" points="261.445,101.431 261.445,101.427 261.445,101.433 261.445,101.431 " fill="#00D68F" stroke="none" />
        <path id="path2106" d="m 257.581,66.286 c -1.419,-1.411 -4.537,-4.433 -12.304,-4.433 -8.736,0 -13.46,7.152 -13.46,7.152 V 37.387 h -14.161 v 40.205 0.556 C 214.723,68.814 206.63,62.11 197.099,62.11 c -5.923,0 -11.296,2.594 -15.214,6.792 l -0.003,-0.181 0.04,-5.821 -13.35,-0.049 v 47.94 c 3.479,6.196 8.221,11.585 13.892,15.8 l -0.033,-23.14 c 3.866,3.869 9.012,6.226 14.667,6.226 9.677,0 17.885,-6.925 20.698,-16.486 v 15.742 h 14.02 V 80.596 l 0.044,-0.141 c 0.368,-4.077 3.798,-7.274 7.977,-7.274 4.403,0 7.968,3.549 8.006,7.943 l 0.005,0.039 v 27.769 h 10.581 c 1.197,-2.384 2.215,-4.885 3.016,-7.505 V 77.452 c 0,0 -0.112,-7.408 -3.864,-11.166 m -63.523,31.417 c -6.512,0 -11.786,-5.284 -11.786,-11.783 0,-6.512 5.274,-11.79 11.786,-11.79 6.51,0 11.054,5.277 11.054,11.79 -0.001,6.498 -4.544,11.783 -11.054,11.783" ns1:connector-curvature="0" fill="url(#radialGradient1278)" />
        <path id="path2108" d="m 212.469,136.515 c -11.24,0 -21.625,-3.688 -30.003,-9.924 -5.671,-4.215 -10.414,-9.604 -13.892,-15.8 -4.087,-7.278 -6.426,-15.662 -6.426,-24.6 0,-12.703 4.715,-24.299 12.489,-33.154 -9.125,9.357 -14.754,22.142 -14.754,36.24 0,28.692 23.251,51.22 51.94,51.22 26.213,0 46.559,-19.079 49.623,-39.064 v -0.002 c -0.801,2.616 -1.818,5.117 -3.016,7.501 -8.593,17.026 -26.817,27.583 -45.961,27.583" ns1:connector-curvature="0" fill="url(#radialGradient1278)" />
        <path id="path2110" d="m 25.237,200.026 c -2.811,0 -5.336,-1.101 -7.198,-2.912 v 13.312 h -6.342 v -35.491 h 6.06 v 2.575 c 1.904,-1.955 4.531,-3.152 7.48,-3.152 6.444,0 11.69,5.537 11.69,12.786 0,7.296 -5.246,12.882 -11.69,12.882 m -0.9,-19.797 c -3.483,0 -6.298,3.1 -6.298,6.914 0,3.862 2.815,7.014 6.298,7.014 3.481,0 6.292,-3.01 6.292,-7.014 0,-3.955 -2.811,-6.914 -6.292,-6.914" ns1:connector-curvature="0" fill="#9B5DE5" />
        <rect id="rect2112" height="35.485001" width="6.2969999" y="164.01601" x="41.362" fill="#FFD24D" stroke="none" />
        <path id="path2114" d="m 77.273,199.501 h -6.008 v -2.628 c -1.909,2.009 -4.526,3.153 -7.534,3.153 -6.393,0 -11.686,-5.533 -11.686,-12.783 0,-7.301 5.293,-12.835 11.686,-12.835 3.008,0 5.625,1.146 7.534,3.152 v -2.626 h 6.008 v 24.567 M 64.684,180.229 c -3.481,0 -6.296,3.053 -6.296,7.06 0,3.913 2.815,6.914 6.296,6.914 3.484,0 6.295,-3.1 6.295,-6.914 0,-3.915 -2.812,-7.06 -6.295,-7.06" ns1:connector-curvature="0" fill="#FF6B9D" />
        <path id="path2116" d="m 105.987,199.501 h -6.295 v -14.353 c 0,-1.438 -0.433,-4.873 -4.582,-4.873 -2.811,0 -4.765,2.104 -4.765,4.873 v 14.353 h -6.302 v -24.566 h 6.015 v 2.387 c 1.571,-1.86 3.722,-3.007 6.344,-3.007 5.769,0 9.584,4.343 9.584,10.834 v 14.352" ns1:connector-curvature="0" fill="#FF4520" />
        <path id="path2118" d="m 116.528,189.676 c 0.811,3.005 3.193,4.859 6.153,4.859 2.1,0 4.146,-0.905 5.198,-2.857 h 6.723 c -1.434,5.007 -5.771,8.392 -11.874,8.392 -6.915,0 -12.59,-5.724 -12.59,-12.826 0,-7.111 5.675,-12.929 12.59,-12.929 7.25,0 13.259,5.628 12.354,15.361 h -18.554 m 12.303,-5.155 c -0.762,-2.862 -3.15,-4.676 -6.15,-4.676 -2.86,0 -5.155,1.813 -6.058,4.676 z" ns1:connector-curvature="0" fill="#FFE500" />
        <path id="path2120" d="m 160.738,189.247 c 0,6.199 -4.195,10.822 -10.776,10.822 -6.586,0 -10.827,-4.623 -10.827,-10.822 v -20.56 h 6.295 v 6.247 h 15.072 v 5.917 H 145.43 v 8.725 c 0,2.245 1.384,4.535 4.532,4.535 3.098,0 4.479,-2.29 4.479,-4.535 v -2.333 h 6.297 v 2.004" ns1:connector-curvature="0" fill="#FF9900" />
        <path id="path2122" d="m 202.093,199.501 h -6.297 v -14.353 c 0,-1.438 -0.48,-4.678 -4.581,-4.678 -2.809,0 -4.772,1.909 -4.772,4.678 v 14.353 h -6.341 v -35.488 h 6.341 v 12.212 c 1.574,-1.194 3.489,-1.91 5.632,-1.91 6.01,0 10.018,4.343 10.018,10.834 v 14.352" ns1:connector-curvature="0" fill="#E02050" />
        <path id="path2124" d="m 230.949,187.243 c 0,7.344 -5.58,12.826 -12.405,12.826 -6.822,0 -12.354,-5.482 -12.354,-12.826 0,-7.349 5.533,-12.929 12.354,-12.929 6.825,0 12.405,5.581 12.405,12.929 m -6.348,0.046 c 0,-4.246 -2.715,-7.202 -6.057,-7.202 -3.336,0 -6.056,2.956 -6.056,7.202 0,4.15 2.72,7.015 6.056,7.015 3.342,0 6.057,-2.865 6.057,-7.015" ns1:connector-curvature="0" fill="#00D68F" />
        <rect id="rect2126" height="35.485001" width="6.2940001" y="164.01601" x="235.383" fill="#FF6B9D" stroke="none" />
        <rect id="rect2128" height="35.485001" width="6.2979999" y="164.01601" x="248.593" fill="#7C5CFC" stroke="none" />
        <path id="path2130" d="m 282.218,200.499 c 0,6.63 -4.339,11.019 -10.922,11.019 -5.389,0 -9.822,-3.529 -10.685,-8.588 h 6.538 c 0.374,1.81 2.001,2.721 4.146,2.721 3.434,0 4.628,-2.429 4.628,-4.721 v -2.86 c -1.479,1.235 -3.391,2 -5.63,2 -6.009,0 -10.015,-4.34 -10.015,-10.78 v -14.354 h 6.296 v 14.354 c 0,1.386 0.476,4.822 4.577,4.822 2.817,0 4.771,-2.053 4.771,-4.822 v -14.354 h 6.294 v 25.563" ns1:connector-curvature="0" fill="#9B5DE5" />
        <path id="path2132" d="m 326.145,189.101 c 0,6.245 -4.386,11.021 -11.061,11.021 -3.342,0 -6.063,-1.338 -7.877,-3.484 -1.855,2.146 -4.579,3.484 -7.82,3.484 -6.822,0 -10.872,-4.533 -10.872,-11.021 v -14.166 h 6.296 v 14.354 c 0,1.386 0.475,4.678 4.576,4.678 2.812,0 4.768,-1.908 4.768,-4.678 v -14.354 h 6.299 v 14.354 c 0,1.386 0.478,4.678 4.631,4.678 2.761,0 4.761,-1.908 4.761,-4.678 v -14.354 h 6.3 v 14.166" ns1:connector-curvature="0" fill="#FF6B9D" />
        <path id="path2134" d="m 354.996,187.243 c 0,7.344 -5.579,12.826 -12.401,12.826 -6.816,0 -12.346,-5.482 -12.346,-12.826 0,-7.349 5.529,-12.929 12.346,-12.929 6.822,0 12.401,5.581 12.401,12.929 m -6.341,0.046 c 0,-4.246 -2.719,-7.202 -6.061,-7.202 -3.338,0 -6.052,2.956 -6.052,7.202 0,4.15 2.714,7.015 6.052,7.015 3.343,0 6.061,-2.865 6.061,-7.015" ns1:connector-curvature="0" fill="#FF4520" />
        <path id="path2136" d="m 381.662,187.243 c 0,7.344 -5.581,12.826 -12.404,12.826 -6.815,0 -12.354,-5.482 -12.354,-12.826 0,-7.349 5.539,-12.929 12.354,-12.929 6.823,0 12.404,5.581 12.404,12.929 m -6.346,0.046 c 0,-4.246 -2.716,-7.202 -6.059,-7.202 -3.335,0 -6.061,2.956 -6.061,7.202 0,4.15 2.726,7.015 6.061,7.015 3.344,0 6.059,-2.865 6.059,-7.015" ns1:connector-curvature="0" fill="#FFE500" />
        <path id="path2138" d="m 400.927,180.993 h -3.626 c -3.62,0 -6.436,2.718 -6.436,6.342 0,3.671 2.815,6.632 6.296,6.632 3.481,0 6.294,-3.052 6.294,-6.823 v -23.131 h 6.294 v 23.131 c 0,7.104 -5.198,12.926 -12.588,12.926 -7.441,0 -12.639,-5.821 -12.639,-12.734 0,-6.864 5.15,-12.4 12.016,-12.4 h 4.389 v 6.057" ns1:connector-curvature="0" fill="#FF9900" />
        <path id="path2140" d="m 47.587,218.014 c 1.325,0 2.36,0.273 3.108,0.81 0.742,0.546 1.114,1.281 1.114,2.221 0,0.706 -0.19,1.32 -0.574,1.851 -0.382,0.526 -0.994,0.889 -1.835,1.081 v 0.032 c 0.399,0.066 0.729,0.176 0.981,0.328 0.256,0.146 0.455,0.329 0.601,0.54 0.148,0.211 0.26,0.446 0.333,0.701 0.068,0.261 0.125,0.534 0.165,0.813 0.025,0.283 0.043,0.566 0.059,0.862 0.009,0.287 0.042,0.576 0.095,0.853 0.054,0.285 0.125,0.547 0.224,0.803 0.097,0.253 0.241,0.474 0.436,0.671 h -2.058 l -0.263,-0.481 c -0.042,-0.21 -0.079,-0.439 -0.09,-0.691 -0.013,-0.254 -0.024,-0.525 -0.036,-0.813 -0.014,-0.299 -0.056,-0.58 -0.118,-0.865 -0.05,-0.28 -0.116,-0.544 -0.195,-0.802 -0.078,-0.251 -0.2,-0.478 -0.365,-0.665 -0.172,-0.186 -0.393,-0.341 -0.666,-0.451 -0.271,-0.114 -0.633,-0.171 -1.092,-0.171 h -4.519 v 4.939 h -1.835 v -11.564 h 6.53 m 0.392,5.253 c 0.392,-0.057 0.73,-0.159 1.024,-0.316 0.293,-0.156 0.526,-0.371 0.701,-0.634 0.178,-0.269 0.265,-0.606 0.265,-1.032 0,-0.587 -0.195,-1.063 -0.586,-1.43 -0.387,-0.368 -1.02,-0.551 -1.89,-0.551 h -4.601 v 4.043 h 3.863 c 0.429,0 0.835,-0.028 1.224,-0.08" ns1:connector-curvature="0" fill="#E02050" />
        <polyline id="polyline2142" points="65.823,218.014 65.823,219.306 58.087,219.306 58.087,222.986 65.299,222.986 65.299,224.278 58.087,224.278    58.087,228.288 65.879,228.288 65.879,229.578 56.242,229.578 56.242,218.014 65.823,218.014 " fill="#FFD24D" stroke="none" />
        <path id="path2144" d="m 76.742,219.591 c -0.615,-0.374 -1.407,-0.557 -2.362,-0.557 -0.389,0 -0.774,0.027 -1.151,0.095 -0.375,0.065 -0.708,0.173 -1.002,0.325 -0.29,0.146 -0.526,0.351 -0.698,0.606 -0.175,0.249 -0.261,0.565 -0.261,0.946 0,0.354 0.122,0.644 0.38,0.869 0.251,0.22 0.586,0.4 1.009,0.542 0.421,0.141 0.895,0.255 1.426,0.349 0.531,0.089 1.075,0.19 1.622,0.295 0.554,0.109 1.092,0.238 1.625,0.385 0.53,0.146 1.005,0.342 1.428,0.595 0.42,0.246 0.757,0.559 1.008,0.936 0.257,0.376 0.378,0.851 0.378,1.421 0,0.62 -0.164,1.149 -0.491,1.583 -0.335,0.437 -0.757,0.792 -1.275,1.067 -0.518,0.279 -1.095,0.478 -1.733,0.606 -0.65,0.121 -1.286,0.183 -1.919,0.183 -0.773,0 -1.513,-0.081 -2.202,-0.24 -0.693,-0.159 -1.307,-0.406 -1.829,-0.734 -0.523,-0.329 -0.939,-0.75 -1.24,-1.263 -0.309,-0.515 -0.457,-1.123 -0.457,-1.82 h 1.752 c 0,0.479 0.113,0.903 0.34,1.255 0.224,0.346 0.524,0.636 0.893,0.861 0.373,0.23 0.798,0.398 1.293,0.506 0.491,0.11 0.995,0.158 1.513,0.158 0.418,0 0.83,-0.031 1.252,-0.091 0.421,-0.067 0.801,-0.181 1.138,-0.338 0.335,-0.152 0.608,-0.367 0.813,-0.636 0.21,-0.273 0.311,-0.619 0.311,-1.035 0,-0.404 -0.127,-0.727 -0.376,-0.974 -0.253,-0.253 -0.59,-0.453 -1.012,-0.61 -0.422,-0.157 -0.896,-0.28 -1.427,-0.378 -0.531,-0.098 -1.067,-0.2 -1.622,-0.303 -0.551,-0.103 -1.091,-0.22 -1.622,-0.356 -0.535,-0.131 -1.007,-0.31 -1.43,-0.533 -0.422,-0.22 -0.759,-0.504 -1.008,-0.856 -0.253,-0.354 -0.38,-0.791 -0.38,-1.326 0,-0.577 0.143,-1.079 0.425,-1.51 0.285,-0.431 0.664,-0.781 1.138,-1.053 0.468,-0.276 1.006,-0.487 1.613,-0.616 0.603,-0.135 1.218,-0.201 1.851,-0.201 0.715,0 1.377,0.07 1.988,0.208 0.606,0.138 1.14,0.357 1.601,0.658 0.463,0.302 0.825,0.684 1.092,1.141 0.264,0.461 0.412,1.004 0.438,1.646 h -1.754 c -0.103,-0.835 -0.463,-1.436 -1.076,-1.806" ns1:connector-curvature="0" fill="#00D68F" />
        <path id="path2146" d="m 84.03,221.52 c 0.28,-0.727 0.698,-1.371 1.255,-1.929 0.558,-0.563 1.253,-1.015 2.08,-1.35 0.831,-0.333 1.796,-0.498 2.897,-0.498 1.105,0 2.066,0.165 2.898,0.498 0.833,0.335 1.525,0.786 2.083,1.35 0.557,0.558 0.975,1.202 1.255,1.929 0.278,0.729 0.416,1.49 0.416,2.273 0,0.79 -0.138,1.551 -0.416,2.275 -0.28,0.731 -0.698,1.373 -1.255,1.94 -0.557,0.557 -1.25,1.003 -2.083,1.332 -0.832,0.329 -1.793,0.496 -2.898,0.496 -1.101,0 -2.066,-0.167 -2.897,-0.496 -0.827,-0.329 -1.522,-0.775 -2.08,-1.332 -0.557,-0.567 -0.975,-1.209 -1.255,-1.94 -0.275,-0.725 -0.416,-1.485 -0.416,-2.275 0,-0.783 0.14,-1.545 0.416,-2.273 m 1.693,4.003 c 0.186,0.572 0.473,1.078 0.862,1.53 0.389,0.455 0.889,0.82 1.495,1.098 0.613,0.275 1.343,0.408 2.182,0.408 0.847,0 1.572,-0.133 2.186,-0.408 0.603,-0.277 1.107,-0.643 1.496,-1.098 0.389,-0.452 0.673,-0.958 0.856,-1.53 0.183,-0.565 0.274,-1.142 0.274,-1.73 0,-0.581 -0.092,-1.155 -0.274,-1.722 -0.183,-0.567 -0.467,-1.077 -0.856,-1.533 -0.389,-0.452 -0.894,-0.818 -1.496,-1.096 -0.613,-0.275 -1.338,-0.408 -2.186,-0.408 -0.839,0 -1.569,0.133 -2.182,0.408 -0.606,0.277 -1.106,0.644 -1.495,1.096 -0.389,0.456 -0.676,0.966 -0.862,1.533 -0.178,0.566 -0.269,1.141 -0.269,1.722 0.001,0.589 0.091,1.165 0.269,1.73" ns1:connector-curvature="0" fill="#9B5DE5" />
        <path id="path2148" d="m 107.589,218.014 c 1.318,0 2.354,0.273 3.095,0.81 0.748,0.546 1.12,1.281 1.12,2.221 0,0.706 -0.19,1.32 -0.573,1.851 -0.383,0.526 -0.992,0.889 -1.84,1.081 v 0.032 c 0.405,0.066 0.733,0.176 0.982,0.328 0.25,0.146 0.455,0.329 0.606,0.54 0.148,0.211 0.257,0.446 0.331,0.701 0.068,0.261 0.125,0.534 0.164,0.813 0.027,0.283 0.043,0.566 0.056,0.862 0.014,0.287 0.047,0.576 0.095,0.853 0.054,0.285 0.129,0.547 0.228,0.803 0.1,0.253 0.244,0.474 0.435,0.671 h -2.056 l -0.264,-0.481 c -0.046,-0.21 -0.075,-0.439 -0.089,-0.691 -0.013,-0.254 -0.027,-0.525 -0.04,-0.813 -0.013,-0.299 -0.053,-0.58 -0.116,-0.865 -0.055,-0.28 -0.115,-0.544 -0.197,-0.802 -0.076,-0.251 -0.198,-0.478 -0.366,-0.665 -0.171,-0.186 -0.389,-0.341 -0.663,-0.451 -0.269,-0.114 -0.64,-0.171 -1.09,-0.171 h -4.515 v 4.939 h -1.843 v -11.564 h 6.54 m 0.389,5.253 c 0.389,-0.057 0.729,-0.159 1.022,-0.316 0.289,-0.156 0.526,-0.371 0.701,-0.634 0.178,-0.269 0.26,-0.606 0.26,-1.032 0,-0.587 -0.19,-1.063 -0.58,-1.43 -0.393,-0.368 -1.022,-0.551 -1.893,-0.551 h -4.597 v 4.043 h 3.856 c 0.433,0 0.842,-0.028 1.231,-0.08" ns1:connector-curvature="0" fill="#FF6B9D" />
        <polyline id="polyline2150" points="115.766,219.306 115.766,218.014 126.86,218.014 126.86,219.306 122.232,219.306 122.232,229.578 120.396,229.578    120.396,219.306 115.766,219.306 " fill="#FF6B9D" stroke="none" />
        <path id="path2152" d="m 145.491,229.362 c -0.717,0.268 -1.46,0.408 -2.225,0.408 -0.931,0 -1.683,-0.119 -2.253,-0.356 -0.571,-0.245 -1.016,-0.531 -1.326,-0.864 -0.309,-0.335 -0.513,-0.682 -0.613,-1.041 -0.095,-0.356 -0.14,-0.651 -0.14,-0.894 0,-0.449 0.084,-0.852 0.26,-1.195 0.174,-0.346 0.412,-0.66 0.705,-0.938 0.291,-0.276 0.637,-0.522 1.032,-0.744 0.398,-0.223 0.813,-0.433 1.255,-0.625 l -0.564,-0.649 -0.498,-0.628 -0.346,-0.662 c -0.083,-0.231 -0.129,-0.497 -0.129,-0.786 0,-0.317 0.071,-0.614 0.204,-0.903 0.14,-0.288 0.337,-0.543 0.604,-0.766 0.264,-0.22 0.594,-0.396 0.983,-0.52 0.385,-0.139 0.83,-0.202 1.337,-0.202 0.429,0 0.844,0.048 1.256,0.146 0.406,0.099 0.765,0.247 1.075,0.448 0.309,0.203 0.56,0.448 0.749,0.751 0.187,0.293 0.282,0.635 0.282,1.026 0,0.344 -0.072,0.668 -0.21,0.964 -0.149,0.3 -0.343,0.574 -0.589,0.82 -0.242,0.247 -0.521,0.474 -0.835,0.675 -0.31,0.202 -0.636,0.379 -0.972,0.548 l 2.508,2.547 c 0.26,-0.604 0.409,-1.207 0.45,-1.805 h 1.573 c -0.042,0.348 -0.082,0.643 -0.129,0.885 l -0.173,0.673 -0.264,0.607 c -0.103,0.202 -0.223,0.433 -0.37,0.689 l 2.704,2.615 h -2.157 l -1.479,-1.441 c -0.416,0.541 -0.979,0.95 -1.705,1.217 m -3.315,-4.897 c -0.293,0.161 -0.551,0.341 -0.768,0.547 -0.221,0.204 -0.403,0.435 -0.528,0.691 -0.131,0.25 -0.197,0.552 -0.197,0.898 0,0.293 0.076,0.559 0.226,0.803 0.153,0.244 0.344,0.445 0.591,0.616 0.247,0.167 0.531,0.298 0.851,0.396 0.316,0.101 0.64,0.143 0.983,0.143 0.632,0 1.199,-0.121 1.7,-0.372 0.494,-0.244 0.917,-0.579 1.253,-1.001 l -3.191,-3.194 c -0.323,0.155 -0.63,0.308 -0.92,0.473 m 2.087,-2.359 0.603,-0.438 0.445,-0.546 0.178,-0.674 c 0,-0.333 -0.143,-0.622 -0.432,-0.864 -0.284,-0.241 -0.672,-0.368 -1.165,-0.368 -0.384,0 -0.749,0.103 -1.083,0.301 -0.336,0.202 -0.504,0.516 -0.504,0.932 l 0.122,0.523 0.326,0.512 0.425,0.494 0.466,0.48 0.619,-0.352" ns1:connector-curvature="0" fill="#FF4520" />
        <path id="path2154" d="m 171.857,219.645 c -0.705,-0.405 -1.547,-0.61 -2.52,-0.61 -0.827,0 -1.54,0.125 -2.129,0.388 -0.59,0.255 -1.077,0.609 -1.459,1.041 -0.38,0.442 -0.662,0.941 -0.847,1.502 -0.178,0.56 -0.268,1.148 -0.268,1.754 0,0.659 0.09,1.279 0.268,1.869 0.185,0.585 0.467,1.108 0.847,1.542 0.382,0.436 0.873,0.784 1.469,1.047 0.597,0.255 1.309,0.383 2.14,0.383 0.606,0 1.147,-0.083 1.622,-0.249 0.475,-0.169 0.879,-0.396 1.226,-0.696 0.34,-0.295 0.608,-0.649 0.807,-1.058 0.196,-0.415 0.314,-0.858 0.35,-1.33 h 1.846 c -0.18,1.462 -0.781,2.589 -1.805,3.4 -1.022,0.808 -2.426,1.21 -4.203,1.21 -1.074,0 -2.014,-0.155 -2.817,-0.463 -0.801,-0.308 -1.472,-0.731 -2,-1.271 -0.531,-0.537 -0.93,-1.177 -1.19,-1.908 -0.267,-0.735 -0.4,-1.523 -0.4,-2.363 0,-0.845 0.144,-1.638 0.426,-2.377 0.284,-0.733 0.703,-1.384 1.253,-1.93 0.55,-0.556 1.232,-0.988 2.057,-1.299 0.824,-0.327 1.77,-0.482 2.831,-0.482 0.725,0 1.411,0.074 2.061,0.244 0.649,0.155 1.224,0.391 1.729,0.705 0.51,0.313 0.928,0.702 1.266,1.172 0.333,0.47 0.558,1.015 0.66,1.628 h -1.848 c -0.213,-0.823 -0.667,-1.436 -1.372,-1.849" ns1:connector-curvature="0" fill="#FFE500" />
        <path id="path2156" d="m 184.09,217.997 5.421,11.581 h -2.039 l -1.523,-3.494 h -5.867 l -1.554,3.494 h -1.884 l 5.402,-11.581 h 2.044 m 1.283,6.794 -2.312,-5.398 h -0.041 l -2.355,5.398 z" ns1:connector-curvature="0" fill="#FF9900" />
        <path id="path2158" d="m 199.485,219.591 c -0.616,-0.374 -1.4,-0.557 -2.36,-0.557 -0.388,0 -0.774,0.027 -1.139,0.095 -0.383,0.065 -0.716,0.173 -1.012,0.325 -0.292,0.146 -0.525,0.351 -0.701,0.606 -0.171,0.249 -0.26,0.565 -0.26,0.946 0,0.354 0.125,0.644 0.379,0.869 0.254,0.22 0.585,0.4 1.008,0.542 0.424,0.141 0.894,0.255 1.427,0.349 0.535,0.089 1.073,0.19 1.626,0.295 0.549,0.109 1.092,0.238 1.623,0.385 0.53,0.146 1.005,0.342 1.427,0.595 0.421,0.246 0.756,0.559 1.011,0.936 0.254,0.376 0.377,0.851 0.377,1.421 0,0.62 -0.162,1.149 -0.492,1.583 -0.336,0.437 -0.754,0.792 -1.272,1.067 -0.521,0.279 -1.103,0.478 -1.744,0.606 -0.641,0.121 -1.278,0.183 -1.91,0.183 -0.778,0 -1.513,-0.081 -2.205,-0.24 -0.693,-0.159 -1.305,-0.406 -1.829,-0.734 -0.524,-0.329 -0.939,-0.75 -1.239,-1.263 -0.306,-0.515 -0.454,-1.123 -0.454,-1.82 h 1.749 c 0,0.479 0.11,0.903 0.342,1.255 0.222,0.346 0.522,0.636 0.893,0.861 0.364,0.23 0.801,0.398 1.29,0.506 0.496,0.11 1,0.158 1.519,0.158 0.409,0 0.828,-0.031 1.246,-0.091 0.427,-0.067 0.802,-0.181 1.138,-0.338 0.34,-0.152 0.61,-0.367 0.818,-0.636 0.204,-0.273 0.312,-0.619 0.312,-1.035 0,-0.404 -0.129,-0.727 -0.373,-0.974 -0.258,-0.253 -0.595,-0.453 -1.017,-0.61 -0.422,-0.157 -0.896,-0.28 -1.427,-0.378 -0.532,-0.098 -1.072,-0.2 -1.626,-0.303 -0.547,-0.103 -1.086,-0.22 -1.621,-0.356 -0.533,-0.131 -1.005,-0.31 -1.427,-0.533 -0.427,-0.22 -0.761,-0.504 -1.005,-0.856 -0.26,-0.354 -0.385,-0.791 -0.385,-1.326 0,-0.577 0.14,-1.079 0.425,-1.51 0.287,-0.431 0.666,-0.781 1.136,-1.053 0.472,-0.276 1.009,-0.487 1.609,-0.616 0.61,-0.135 1.222,-0.201 1.857,-0.201 0.716,0 1.375,0.07 1.985,0.208 0.609,0.138 1.142,0.357 1.604,0.658 0.46,0.302 0.818,0.684 1.089,1.141 0.266,0.461 0.412,1.004 0.431,1.646 h -1.743 c -0.103,-0.835 -0.459,-1.436 -1.08,-1.806" ns1:connector-curvature="0" fill="#E02050" />
        <rect id="rect2160" height="11.578" width="1.84" y="218" x="207.32899" fill="#7C5CFC" stroke="none" />
        <polyline id="polyline2162" points="214.991,217.997 222.308,227.383 222.34,227.383 222.34,217.997 224.096,217.997 224.096,229.578 222.075,229.578    214.827,220.287 214.788,220.287 214.788,229.578 213.031,229.578 213.031,217.997 214.991,217.997 " fill="#00E5A0" stroke="none" />
        <path id="path2164" d="m 227.277,221.52 c 0.284,-0.727 0.699,-1.371 1.256,-1.929 0.563,-0.563 1.251,-1.015 2.083,-1.35 0.833,-0.333 1.797,-0.498 2.896,-0.498 1.101,0 2.071,0.165 2.897,0.498 0.834,0.335 1.524,0.786 2.079,1.35 0.559,0.558 0.979,1.202 1.252,1.929 0.282,0.729 0.423,1.49 0.423,2.273 0,0.79 -0.141,1.551 -0.423,2.275 -0.272,0.731 -0.693,1.373 -1.252,1.94 -0.555,0.557 -1.245,1.003 -2.079,1.332 -0.826,0.329 -1.797,0.496 -2.897,0.496 -1.1,0 -2.063,-0.167 -2.896,-0.496 -0.832,-0.329 -1.521,-0.775 -2.083,-1.332 -0.557,-0.567 -0.972,-1.209 -1.256,-1.94 -0.274,-0.725 -0.414,-1.485 -0.414,-2.275 0,-0.783 0.14,-1.545 0.414,-2.273 m 1.701,4.003 c 0.182,0.572 0.464,1.078 0.853,1.53 0.387,0.455 0.894,0.82 1.5,1.098 0.609,0.275 1.336,0.408 2.183,0.408 0.846,0 1.568,-0.133 2.182,-0.408 0.608,-0.277 1.112,-0.643 1.493,-1.098 0.397,-0.452 0.676,-0.958 0.857,-1.53 0.183,-0.565 0.274,-1.142 0.274,-1.73 0,-0.581 -0.092,-1.155 -0.274,-1.722 -0.182,-0.567 -0.46,-1.077 -0.857,-1.533 -0.381,-0.452 -0.885,-0.818 -1.493,-1.096 -0.613,-0.275 -1.336,-0.408 -2.182,-0.408 -0.847,0 -1.573,0.133 -2.183,0.408 -0.606,0.277 -1.113,0.644 -1.5,1.096 -0.389,0.456 -0.671,0.966 -0.853,1.533 -0.179,0.566 -0.273,1.141 -0.273,1.722 -0.001,0.589 0.094,1.165 0.273,1.73" ns1:connector-curvature="0" fill="#00D68F" />
        <polyline id="polyline2166" points="269.92,218.304 269.92,228.469 277.368,228.469 277.368,229.368 268.66,229.368 268.66,218.304 269.92,218.304 " fill="#FF8C42" stroke="none" />
        <polyline id="polyline2168" points="269.92,218.304 269.61,218.304 269.61,228.777 277.059,228.777 277.059,229.06 268.969,229.06 268.969,218.612    269.92,218.612 269.92,218.304 269.61,218.304 269.92,218.304 269.92,217.99 268.346,217.99 268.346,229.682 277.682,229.682    277.682,228.157 270.233,228.157 270.233,217.99 269.92,217.99 269.92,218.304 " fill="#5EC8FF" stroke="none" />
        <path id="path2170" d="m 287.228,218.304 5.214,11.064 h -1.363 l -1.618,-3.431 h -6.05 l -1.598,3.431 h -1.343 l 5.346,-11.064 h 1.412 m 1.801,6.726 -2.563,-5.673 -2.665,5.673 z" ns1:connector-curvature="0" fill="#9B5DE5" />
        <path id="path2172" d="m 287.228,218.304 -0.282,0.132 5.005,10.624 h -0.673 l -1.618,-3.437 h -6.446 l -1.603,3.437 h -0.643 l 5.04,-10.447 h 1.22 v -0.309 l -0.282,0.132 0.282,-0.132 v -0.313 h -1.611 l -5.644,11.691 h 2.037 l 1.603,-3.437 h 5.65 l 1.618,3.437 h 2.051 l -5.509,-11.691 h -0.195 v 0.313 m 1.801,6.726 0.287,-0.132 -2.844,-6.289 -3.163,6.729 h 6.202 l -0.195,-0.44 -0.287,0.132 v -0.313 h -4.738 l 2.166,-4.612 2.29,5.055 0.282,-0.13 v -0.313 z" ns1:connector-curvature="0" fill="#FF6B9D" />
        <path id="path2174" d="m 296.794,227.157 c 0.229,0.39 0.531,0.692 0.928,0.915 0.388,0.229 0.85,0.389 1.381,0.485 0.536,0.1 1.105,0.148 1.713,0.148 0.347,0 0.724,-0.042 1.136,-0.118 0.406,-0.083 0.794,-0.218 1.139,-0.4 0.358,-0.179 0.652,-0.411 0.886,-0.698 0.242,-0.283 0.356,-0.63 0.356,-1.029 0,-0.312 -0.086,-0.58 -0.251,-0.807 -0.173,-0.229 -0.386,-0.422 -0.648,-0.578 -0.271,-0.155 -0.566,-0.284 -0.89,-0.38 -0.318,-0.096 -0.639,-0.179 -0.95,-0.242 l -2.956,-0.603 c -0.386,-0.086 -0.756,-0.188 -1.132,-0.31 -0.361,-0.125 -0.675,-0.292 -0.951,-0.497 -0.275,-0.208 -0.49,-0.463 -0.658,-0.763 -0.169,-0.301 -0.254,-0.665 -0.254,-1.101 0,-0.271 0.061,-0.586 0.188,-0.949 0.126,-0.361 0.352,-0.703 0.697,-1.029 0.341,-0.312 0.807,-0.585 1.405,-0.813 0.594,-0.219 1.358,-0.331 2.291,-0.331 0.654,0 1.284,0.069 1.876,0.215 0.601,0.146 1.123,0.364 1.568,0.654 0.444,0.292 0.805,0.655 1.067,1.079 0.267,0.429 0.398,0.928 0.398,1.497 h -1.262 c -0.029,-0.418 -0.139,-0.792 -0.348,-1.107 -0.203,-0.317 -0.466,-0.578 -0.8,-0.792 -0.325,-0.21 -0.704,-0.367 -1.134,-0.477 -0.429,-0.108 -0.881,-0.165 -1.35,-0.165 -0.435,0 -0.852,0.041 -1.258,0.113 -0.403,0.077 -0.755,0.204 -1.063,0.376 -0.302,0.17 -0.544,0.393 -0.734,0.67 -0.188,0.283 -0.278,0.628 -0.278,1.043 0,0.261 0.059,0.485 0.161,0.676 l 0.431,0.494 0.65,0.322 c 0.235,0.082 0.492,0.148 0.766,0.198 l 3.239,0.664 c 0.473,0.109 0.919,0.234 1.329,0.387 0.415,0.147 0.787,0.333 1.101,0.559 0.316,0.22 0.564,0.493 0.742,0.812 0.182,0.32 0.273,0.709 0.273,1.167 l -0.047,0.491 -0.227,0.662 -0.505,0.704 c -0.22,0.235 -0.511,0.455 -0.892,0.646 -0.377,0.19 -0.85,0.347 -1.403,0.468 -0.561,0.119 -1.226,0.179 -2.011,0.179 -0.779,0 -1.511,-0.08 -2.179,-0.229 -0.668,-0.152 -1.237,-0.374 -1.71,-0.689 -0.471,-0.308 -0.836,-0.707 -1.087,-1.191 -0.26,-0.49 -0.37,-1.071 -0.332,-1.754 h 1.269 c -0.005,0.57 0.095,1.047 0.32,1.428" ns1:connector-curvature="0" fill="#FF4520" />
        <path id="path2176" d="m 296.794,227.157 -0.271,0.162 c 0.254,0.43 0.601,0.777 1.04,1.024 l 0.159,-0.271 -0.159,0.271 c 0.429,0.246 0.922,0.42 1.481,0.521 0.557,0.101 1.147,0.152 1.771,0.152 0.369,0 0.772,-0.042 1.196,-0.128 0.433,-0.088 0.845,-0.23 1.224,-0.427 0.386,-0.195 0.718,-0.452 0.982,-0.78 l -0.242,-0.193 0.235,0.202 c 0.293,-0.341 0.435,-0.772 0.433,-1.231 0.002,-0.367 -0.104,-0.711 -0.312,-0.992 l -0.003,-0.004 v -0.002 c -0.19,-0.254 -0.437,-0.479 -0.744,-0.656 -0.289,-0.167 -0.607,-0.308 -0.945,-0.408 l -0.005,-0.003 c -0.327,-0.098 -0.656,-0.184 -0.979,-0.244 l -2.956,-0.604 -0.063,0.304 0.069,-0.304 c -0.375,-0.083 -0.737,-0.185 -1.103,-0.303 l -0.099,0.297 0.103,-0.293 c -0.334,-0.116 -0.614,-0.265 -0.869,-0.454 l -0.185,0.25 0.188,-0.248 c -0.239,-0.185 -0.424,-0.402 -0.58,-0.67 l 0.004,0.006 c -0.134,-0.245 -0.217,-0.559 -0.217,-0.951 0,-0.225 0.058,-0.51 0.177,-0.847 h -0.005 c 0.11,-0.312 0.303,-0.604 0.621,-0.907 l -0.004,0.004 c 0.302,-0.277 0.734,-0.535 1.307,-0.749 0.542,-0.2 1.271,-0.313 2.179,-0.313 0.632,0 1.23,0.067 1.811,0.207 0.563,0.141 1.047,0.348 1.459,0.615 0.415,0.269 0.735,0.596 0.979,0.982 v 0 c 0.231,0.375 0.348,0.806 0.348,1.33 h 0.313 v -0.313 h -1.262 v 0.313 l 0.31,-0.016 c -0.029,-0.465 -0.154,-0.894 -0.396,-1.259 -0.229,-0.357 -0.527,-0.655 -0.893,-0.886 -0.36,-0.23 -0.769,-0.404 -1.226,-0.521 -0.46,-0.115 -0.935,-0.174 -1.426,-0.174 -0.453,0 -0.893,0.043 -1.312,0.119 h -0.004 -0.003 c -0.43,0.085 -0.811,0.225 -1.151,0.408 v 0.004 h -0.005 c -0.341,0.192 -0.623,0.454 -0.838,0.768 v 0.002 c -0.229,0.343 -0.334,0.757 -0.334,1.215 0,0.305 0.071,0.585 0.199,0.82 l 0.016,0.033 0.46,0.52 0.04,0.046 0.701,0.35 0.021,0.013 0.021,0.006 c 0.253,0.086 0.521,0.157 0.809,0.214 l 0.056,-0.311 -0.06,0.305 3.236,0.667 0.063,-0.308 -0.071,0.308 c 0.464,0.099 0.894,0.227 1.298,0.372 0.39,0.137 0.732,0.313 1.02,0.518 v 0 c 0.284,0.198 0.5,0.432 0.652,0.714 v 0 l 0.004,0.001 c 0.148,0.265 0.231,0.597 0.231,1.012 h 0.312 l -0.308,-0.031 -0.047,0.459 -0.197,0.581 -0.484,0.666 0.258,0.183 -0.23,-0.207 c -0.187,0.2 -0.448,0.396 -0.798,0.57 -0.348,0.181 -0.791,0.326 -1.334,0.443 -0.531,0.112 -1.172,0.172 -1.943,0.172 -0.758,0 -1.464,-0.075 -2.109,-0.217 -0.643,-0.143 -1.174,-0.359 -1.606,-0.646 -0.432,-0.287 -0.753,-0.638 -0.988,-1.08 l -0.271,0.146 0.271,-0.143 c -0.195,-0.379 -0.296,-0.827 -0.296,-1.369 l 0.007,-0.226 -0.314,-0.017 v 0.309 h 1.269 v -0.309 l -0.312,-0.008 v 0.087 c 0,0.573 0.11,1.08 0.356,1.511 l 0.27,-0.159 0.267,-0.155 c -0.177,-0.303 -0.269,-0.7 -0.269,-1.193 v -0.073 l 0.002,-0.319 h -1.878 l -0.019,0.296 -0.004,0.26 c 0,0.619 0.114,1.176 0.369,1.661 v 0 c 0.278,0.528 0.682,0.967 1.197,1.303 0.507,0.342 1.111,0.577 1.807,0.734 0.694,0.156 1.45,0.234 2.25,0.234 0.801,0 1.486,-0.062 2.071,-0.188 0.576,-0.123 1.071,-0.286 1.483,-0.494 0.401,-0.204 0.733,-0.436 0.979,-0.71 l 0.014,-0.013 0.516,-0.72 0.029,-0.04 0.237,-0.704 0.012,-0.031 0.054,-0.53 v -0.03 c 0,-0.496 -0.102,-0.944 -0.314,-1.316 l -0.271,0.149 0.273,-0.147 c -0.204,-0.366 -0.489,-0.676 -0.839,-0.923 l -0.177,0.259 0.177,-0.256 c -0.341,-0.244 -0.734,-0.442 -1.17,-0.601 -0.428,-0.15 -0.885,-0.287 -1.369,-0.391 h -0.007 l -3.234,-0.665 -0.007,-0.003 c -0.26,-0.049 -0.504,-0.11 -0.726,-0.188 l -0.099,0.296 0.141,-0.279 -0.592,-0.298 -0.398,-0.448 -0.231,0.209 0.273,-0.151 -0.125,-0.524 c 0.007,-0.369 0.083,-0.643 0.232,-0.869 l -0.006,0.007 0.002,-0.007 c 0.161,-0.235 0.363,-0.424 0.632,-0.576 l -0.157,-0.268 0.148,0.268 c 0.28,-0.146 0.601,-0.263 0.975,-0.341 l -0.061,-0.303 0.052,0.305 c 0.395,-0.069 0.791,-0.104 1.206,-0.104 0.443,0 0.865,0.049 1.271,0.149 0.403,0.102 0.747,0.25 1.045,0.443 0.294,0.188 0.524,0.418 0.706,0.694 0.173,0.271 0.273,0.579 0.298,0.961 l 0.018,0.292 h 1.867 v -0.313 c 0,-0.616 -0.146,-1.178 -0.443,-1.661 l -0.005,-0.002 c -0.289,-0.462 -0.679,-0.862 -1.158,-1.176 -0.482,-0.309 -1.033,-0.539 -1.661,-0.692 -0.623,-0.149 -1.28,-0.229 -1.954,-0.229 -0.96,0.003 -1.756,0.117 -2.401,0.357 -0.623,0.235 -1.129,0.521 -1.504,0.876 v 0 c -0.376,0.352 -0.636,0.734 -0.782,1.154 l -0.004,10e-4 0.004,-10e-4 c -0.132,0.386 -0.208,0.731 -0.208,1.05 0,0.476 0.099,0.899 0.291,1.253 v 0.003 c 0.19,0.333 0.438,0.619 0.744,0.855 h 0.003 v 0.005 c 0.307,0.223 0.646,0.405 1.04,0.54 h 0.006 c 0.379,0.123 0.76,0.231 1.159,0.319 v 0 l 2.961,0.604 c 0.303,0.059 0.612,0.139 0.926,0.232 h -0.005 v -0.003 c 0.296,0.094 0.574,0.216 0.82,0.357 l 0.554,0.491 0.254,-0.185 -0.256,0.181 c 0.128,0.176 0.192,0.369 0.192,0.626 0,0.344 -0.092,0.604 -0.28,0.829 v 0 l -0.004,0.002 c -0.199,0.25 -0.462,0.457 -0.784,0.62 -0.323,0.169 -0.68,0.289 -1.063,0.371 -0.391,0.077 -0.754,0.114 -1.071,0.114 -0.592,0 -1.139,-0.051 -1.657,-0.142 -0.504,-0.094 -0.93,-0.244 -1.279,-0.448 v -0.006 h -0.002 c -0.351,-0.201 -0.614,-0.46 -0.821,-0.799 l -0.262,0.155" ns1:connector-curvature="0" fill="#FFE500" />
        <polyline id="polyline2178" points="316.099,218.304 320.418,228.209 320.454,228.209 324.732,218.304 326.071,218.304 321.143,229.368    319.667,229.368 314.759,218.304 316.099,218.304 " fill="#FFC11C" stroke="none" />
        <polyline id="polyline2180" points="316.099,218.304 315.813,218.424 320.214,228.521 320.662,228.521 324.939,218.612 325.594,218.612    320.936,229.06 319.874,229.06 315.233,218.612 316.099,218.612 316.099,218.304 315.813,218.424 316.099,218.304 316.099,217.99    314.274,217.99 319.468,229.682 321.346,229.682 326.558,217.99 324.526,217.99 320.172,228.083 320.454,228.209 320.454,227.896    320.418,227.896 320.418,228.209 320.705,228.083 316.303,217.99 316.099,217.99 316.099,218.304 " fill="#FF4D8D" stroke="none" />
        <polyline id="polyline2182" points="338.067,218.304 338.067,219.198 330.155,219.198 330.155,223.19 337.563,223.19 337.563,224.095 330.155,224.095    330.155,228.469 338.156,228.469 338.156,229.368 328.889,229.368 328.889,218.304 338.067,218.304 " fill="#9B8CFF" stroke="none" />
        <polyline id="polyline2184" points="338.067,218.304 337.756,218.304 337.756,218.885 329.844,218.885 329.844,223.504 337.251,223.504    337.251,223.783 329.844,223.783 329.844,228.777 337.85,228.777 337.85,229.06 329.2,229.06 329.2,218.612 338.067,218.612    338.067,218.304 337.756,218.304 338.067,218.304 338.067,217.99 328.577,217.99 328.577,229.682 338.471,229.682 338.471,228.157    330.464,228.157 330.464,224.407 337.876,224.407 337.876,222.882 330.464,222.882 330.464,219.51 338.379,219.51 338.379,217.99    338.067,217.99 338.067,218.304 " fill="#00D68F" stroke="none" />
        <path id="path2186" d="m 351.928,229.371 -0.17,-2.013 h -0.036 c -0.22,0.391 -0.5,0.727 -0.829,1.016 -0.325,0.283 -0.69,0.516 -1.088,0.692 -0.392,0.183 -0.82,0.314 -1.269,0.396 -0.459,0.088 -0.923,0.13 -1.409,0.13 -1.04,0 -1.957,-0.158 -2.746,-0.48 -0.787,-0.313 -1.443,-0.729 -1.963,-1.26 -0.522,-0.528 -0.913,-1.141 -1.173,-1.83 -0.262,-0.7 -0.39,-1.423 -0.39,-2.188 0,-0.767 0.128,-1.494 0.39,-2.187 0.26,-0.694 0.65,-1.313 1.173,-1.845 0.52,-0.533 1.176,-0.955 1.963,-1.272 0.789,-0.311 1.706,-0.472 2.746,-0.472 0.694,0 1.352,0.081 1.975,0.231 0.618,0.161 1.17,0.396 1.658,0.703 0.478,0.309 0.89,0.694 1.222,1.15 0.336,0.451 0.565,0.981 0.69,1.591 h -1.267 c -0.038,-0.313 -0.168,-0.639 -0.379,-0.969 -0.215,-0.324 -0.504,-0.617 -0.876,-0.891 -0.367,-0.266 -0.805,-0.482 -1.312,-0.658 -0.511,-0.167 -1.08,-0.254 -1.712,-0.254 -0.881,0 -1.637,0.143 -2.271,0.416 -0.635,0.279 -1.152,0.652 -1.561,1.113 -0.398,0.461 -0.701,0.978 -0.89,1.555 -0.19,0.582 -0.289,1.18 -0.289,1.787 0,0.601 0.099,1.194 0.289,1.776 0.188,0.587 0.491,1.106 0.89,1.571 0.408,0.458 0.926,0.832 1.561,1.112 0.634,0.278 1.39,0.412 2.271,0.412 0.732,0 1.387,-0.092 1.963,-0.301 0.574,-0.202 1.063,-0.479 1.462,-0.843 0.395,-0.362 0.692,-0.791 0.895,-1.29 0.201,-0.493 0.289,-1.041 0.275,-1.625 H 347.2 v -0.904 h 5.642 v 5.628 h -0.914" ns1:connector-curvature="0" fill="#FF9900" />
        <path id="path2188" d="m 351.928,229.371 0.312,-0.022 -0.173,-2.018 -0.018,-0.286 h -0.509 l -0.09,0.161 c -0.206,0.359 -0.459,0.668 -0.762,0.93 l -0.003,0.004 c -0.3,0.262 -0.639,0.479 -1.011,0.646 v 0 c -0.369,0.168 -0.769,0.295 -1.201,0.374 -0.435,0.079 -0.883,0.119 -1.347,0.119 -1.011,0 -1.886,-0.152 -2.632,-0.456 -0.753,-0.303 -1.367,-0.697 -1.858,-1.188 -0.492,-0.498 -0.852,-1.072 -1.1,-1.722 -0.247,-0.663 -0.372,-1.352 -0.372,-2.079 0,-0.735 0.125,-1.421 0.372,-2.077 0.248,-0.655 0.609,-1.234 1.1,-1.738 0.491,-0.494 1.105,-0.894 1.858,-1.201 0.746,-0.294 1.623,-0.448 2.632,-0.448 0.675,0 1.3,0.078 1.9,0.225 0.592,0.153 1.107,0.373 1.563,0.662 0.448,0.287 0.831,0.646 1.143,1.07 v 0 l 0.003,0.004 c 0.305,0.408 0.518,0.896 0.627,1.469 l 0.31,-0.064 v -0.313 h -1.267 v 0.313 l 0.305,-0.035 c -0.04,-0.372 -0.188,-0.743 -0.423,-1.103 -0.24,-0.361 -0.559,-0.682 -0.953,-0.972 -0.398,-0.29 -0.863,-0.52 -1.394,-0.701 -0.548,-0.186 -1.15,-0.274 -1.813,-0.274 -0.912,0 -1.713,0.146 -2.396,0.445 -0.668,0.298 -1.23,0.692 -1.665,1.192 -0.433,0.491 -0.753,1.05 -0.95,1.665 -0.204,0.61 -0.312,1.238 -0.312,1.882 0,0.637 0.107,1.258 0.312,1.875 v -0.003 c 0.197,0.622 0.518,1.187 0.95,1.683 v 0.002 -0.002 c 0.439,0.495 0.995,0.894 1.661,1.187 0.688,0.302 1.488,0.442 2.4,0.442 0.76,0 1.452,-0.098 2.07,-0.323 l -0.107,-0.289 0.102,0.295 c 0.607,-0.213 1.136,-0.513 1.571,-0.906 0.428,-0.396 0.755,-0.865 0.973,-1.404 0.204,-0.504 0.3,-1.051 0.3,-1.627 l -0.004,-0.121 -0.003,-0.306 h -4.514 v -0.282 h 5.014 v 5.009 h -0.601 v 0.306 l 0.312,-0.022 -0.312,0.022 v 0.313 h 1.227 v -6.257 h -6.261 v 1.533 h 4.828 v -0.313 l -0.313,0.007 0.004,0.108 c 0,0.51 -0.087,0.973 -0.253,1.395 -0.187,0.455 -0.457,0.842 -0.818,1.174 -0.363,0.333 -0.812,0.591 -1.354,0.778 l -0.003,0.003 h -0.002 c -0.533,0.19 -1.149,0.284 -1.855,0.284 -0.85,0 -1.558,-0.136 -2.149,-0.388 -0.592,-0.266 -1.071,-0.61 -1.448,-1.034 h 0.007 v 0.003 c -0.379,-0.434 -0.654,-0.92 -0.829,-1.462 v -0.008 0.003 c -0.185,-0.553 -0.278,-1.104 -0.278,-1.677 0,-0.576 0.094,-1.135 0.278,-1.687 0.175,-0.537 0.45,-1.02 0.829,-1.452 0.37,-0.423 0.85,-0.766 1.445,-1.033 0.588,-0.254 1.298,-0.385 2.146,-0.385 0.607,0 1.143,0.077 1.611,0.235 0.481,0.164 0.89,0.37 1.229,0.618 0.347,0.248 0.604,0.517 0.798,0.81 0.194,0.3 0.298,0.573 0.329,0.825 l 0.027,0.28 h 1.932 l -0.076,-0.372 c -0.128,-0.648 -0.379,-1.228 -0.748,-1.719 l -0.247,0.188 0.251,-0.186 c -0.354,-0.488 -0.793,-0.896 -1.302,-1.226 -0.521,-0.33 -1.105,-0.577 -1.751,-0.742 -0.652,-0.161 -1.334,-0.247 -2.053,-0.247 -1.076,0 -2.031,0.169 -2.862,0.494 -0.823,0.334 -1.516,0.782 -2.066,1.348 -0.557,0.563 -0.971,1.221 -1.247,1.95 -0.275,0.728 -0.41,1.496 -0.41,2.299 0,0.802 0.135,1.566 0.41,2.302 0.276,0.727 0.69,1.382 1.247,1.937 0.554,0.563 1.246,1.003 2.066,1.332 0.831,0.336 1.793,0.5 2.862,0.5 0.502,0 0.986,-0.048 1.459,-0.131 0.478,-0.089 0.928,-0.232 1.35,-0.422 l -0.131,-0.285 0.128,0.285 c 0.422,-0.188 0.813,-0.44 1.166,-0.748 l -0.206,-0.229 0.201,0.231 c 0.361,-0.305 0.659,-0.676 0.899,-1.095 l -0.271,-0.152 v 0.308 h 0.036 v -0.308 l -0.31,0.024 0.168,2.016 0.024,0.286 h 0.287 v -0.311" ns1:connector-curvature="0" fill="#E02050" />
        <path id="path2190" d="m 363.188,218.304 5.214,11.064 h -1.356 l -1.623,-3.431 h -6.049 l -1.601,3.431 h -1.343 l 5.341,-11.064 h 1.417 m 1.812,6.726 -2.573,-5.673 -2.663,5.673 z" ns1:connector-curvature="0" fill="#00D68F" />
        <path id="path2192" d="m 363.188,218.304 -0.278,0.132 5.001,10.624 h -0.67 l -1.621,-3.437 h -6.443 l -1.603,3.437 h -0.648 l 5.043,-10.447 h 1.22 v -0.309 l -0.278,0.132 0.277,-0.132 v -0.313 h -1.614 l -5.637,11.691 h 2.033 l 1.603,-3.437 h 5.65 l 1.623,3.437 h 2.046 l -5.502,-11.691 h -0.202 v 0.313 m 1.812,6.726 0.284,-0.132 -2.855,-6.286 -3.156,6.727 h 6.209 l -0.197,-0.44 -0.285,0.131 v -0.313 h -4.745 l 2.165,-4.616 2.295,5.059 0.285,-0.13 v -0.313 z" ns1:connector-curvature="0" fill="#9B5DE5" />
        <path id="path2194" d="m 372.981,227.157 c 0.222,0.39 0.528,0.692 0.923,0.915 0.391,0.229 0.853,0.389 1.388,0.485 0.533,0.1 1.103,0.148 1.708,0.148 0.35,0 0.727,-0.042 1.139,-0.118 0.408,-0.083 0.784,-0.218 1.143,-0.4 0.351,-0.179 0.648,-0.411 0.879,-0.698 0.24,-0.283 0.358,-0.63 0.358,-1.029 0,-0.312 -0.087,-0.58 -0.255,-0.807 -0.164,-0.229 -0.381,-0.422 -0.65,-0.578 -0.262,-0.155 -0.561,-0.284 -0.885,-0.38 -0.323,-0.096 -0.633,-0.179 -0.946,-0.242 l -2.956,-0.603 c -0.386,-0.086 -0.76,-0.188 -1.13,-0.31 -0.361,-0.125 -0.684,-0.292 -0.955,-0.497 -0.277,-0.208 -0.495,-0.463 -0.661,-0.763 -0.17,-0.301 -0.253,-0.665 -0.253,-1.101 0,-0.271 0.058,-0.586 0.184,-0.949 0.128,-0.361 0.358,-0.703 0.701,-1.029 0.341,-0.312 0.812,-0.585 1.405,-0.813 0.595,-0.219 1.358,-0.331 2.291,-0.331 0.659,0 1.282,0.069 1.878,0.215 0.595,0.146 1.119,0.364 1.567,0.654 0.446,0.292 0.805,0.655 1.069,1.079 0.264,0.429 0.4,0.928 0.4,1.497 h -1.269 c -0.022,-0.418 -0.137,-0.792 -0.341,-1.107 -0.213,-0.317 -0.475,-0.578 -0.807,-0.792 -0.329,-0.21 -0.703,-0.367 -1.136,-0.477 -0.424,-0.108 -0.872,-0.165 -1.346,-0.165 -0.433,0 -0.852,0.041 -1.253,0.113 -0.412,0.077 -0.762,0.204 -1.062,0.376 -0.308,0.17 -0.552,0.393 -0.74,0.67 -0.182,0.283 -0.275,0.628 -0.275,1.043 0,0.261 0.049,0.485 0.161,0.676 l 0.433,0.494 0.641,0.322 c 0.245,0.082 0.505,0.148 0.77,0.198 l 3.245,0.664 c 0.469,0.109 0.91,0.234 1.325,0.387 0.416,0.147 0.786,0.333 1.104,0.559 0.312,0.22 0.561,0.493 0.742,0.812 0.179,0.32 0.267,0.709 0.267,1.167 l -0.052,0.491 -0.215,0.662 -0.505,0.704 c -0.22,0.235 -0.518,0.455 -0.896,0.646 -0.378,0.191 -0.838,0.347 -1.398,0.468 -0.563,0.119 -1.232,0.179 -2.015,0.179 -0.778,0 -1.509,-0.08 -2.179,-0.229 -0.666,-0.152 -1.239,-0.374 -1.71,-0.689 -0.469,-0.308 -0.837,-0.707 -1.092,-1.191 -0.251,-0.49 -0.361,-1.071 -0.323,-1.754 h 1.265 c -0.008,0.57 0.095,1.047 0.319,1.428" ns1:connector-curvature="0" fill="#FF6B9D" />
        <path id="path2196" d="m 372.981,227.157 -0.271,0.158 c 0.246,0.434 0.603,0.781 1.038,1.028 0.43,0.246 0.926,0.42 1.488,0.521 0.554,0.101 1.143,0.152 1.764,0.152 0.377,0 0.771,-0.042 1.197,-0.128 0.437,-0.088 0.85,-0.23 1.224,-0.421 l 0.002,-0.006 c 0.381,-0.195 0.72,-0.452 0.981,-0.78 l -0.244,-0.193 0.242,0.196 c 0.287,-0.335 0.431,-0.764 0.431,-1.226 0,-0.367 -0.11,-0.711 -0.314,-0.992 -0.197,-0.263 -0.445,-0.485 -0.75,-0.662 -0.283,-0.167 -0.602,-0.308 -0.948,-0.411 -0.332,-0.098 -0.652,-0.184 -0.979,-0.244 l -2.952,-0.604 -0.063,0.304 0.064,-0.304 c -0.374,-0.083 -0.741,-0.185 -1.096,-0.303 -0.334,-0.112 -0.623,-0.262 -0.865,-0.448 -0.244,-0.185 -0.431,-0.402 -0.576,-0.664 -0.137,-0.245 -0.215,-0.559 -0.215,-0.951 -0.003,-0.225 0.052,-0.512 0.168,-0.847 v 0.006 -0.006 c 0.112,-0.312 0.305,-0.604 0.623,-0.907 l -0.002,0.004 c 0.298,-0.277 0.732,-0.535 1.3,-0.749 0.542,-0.2 1.275,-0.313 2.181,-0.313 0.637,0 1.23,0.067 1.805,0.207 0.566,0.141 1.056,0.348 1.47,0.618 0.408,0.266 0.733,0.593 0.976,0.974 0.232,0.381 0.352,0.812 0.354,1.336 h 0.312 v -0.313 h -1.269 v 0.313 l 0.308,-0.016 c -0.019,-0.465 -0.15,-0.894 -0.391,-1.259 -0.23,-0.357 -0.533,-0.655 -0.892,-0.886 -0.361,-0.23 -0.769,-0.404 -1.229,-0.521 -0.455,-0.115 -0.93,-0.174 -1.426,-0.174 -0.455,0 -0.892,0.043 -1.311,0.119 v 0 h -0.007 c -0.433,0.085 -0.816,0.222 -1.152,0.412 -0.343,0.19 -0.625,0.45 -0.845,0.765 v 0.005 l -0.002,0.005 c -0.213,0.338 -0.328,0.75 -0.328,1.21 0,0.303 0.065,0.585 0.202,0.83 l 0.014,0.026 0.459,0.517 0.036,0.046 0.701,0.35 0.019,0.013 0.022,0.006 c 0.255,0.086 0.526,0.157 0.809,0.214 l 0.057,-0.311 -0.059,0.305 3.243,0.667 0.061,-0.308 -0.069,0.308 c 0.459,0.099 0.888,0.227 1.293,0.372 0.388,0.137 0.733,0.313 1.024,0.518 0.276,0.198 0.493,0.434 0.657,0.715 v 0.004 l -0.005,-0.005 c 0.148,0.263 0.225,0.595 0.225,1.013 h 0.313 l -0.31,-0.031 -0.045,0.461 -0.192,0.579 -0.478,0.666 0.253,0.183 -0.23,-0.207 c -0.186,0.2 -0.45,0.396 -0.805,0.57 -0.35,0.181 -0.787,0.326 -1.331,0.443 -0.522,0.112 -1.177,0.172 -1.943,0.172 -0.76,0 -1.466,-0.075 -2.107,-0.217 -0.643,-0.143 -1.177,-0.359 -1.609,-0.646 -0.432,-0.287 -0.757,-0.641 -0.99,-1.076 l -0.273,0.143 0.28,-0.138 c -0.2,-0.381 -0.296,-0.829 -0.296,-1.362 l 0.007,-0.237 -0.314,-0.017 v 0.309 h 1.265 v -0.309 l -0.31,-0.008 v 0.087 c 0,0.573 0.11,1.084 0.356,1.511 l 0.269,-0.161 0.267,-0.155 c -0.177,-0.303 -0.273,-0.7 -0.273,-1.193 v -0.073 l 0.007,-0.319 h -1.881 l -0.016,0.296 -0.005,0.271 c 0,0.613 0.119,1.165 0.366,1.644 v 0.006 c 0.277,0.528 0.684,0.967 1.196,1.303 0.511,0.344 1.118,0.577 1.815,0.734 0.692,0.156 1.446,0.234 2.244,0.234 0.796,0 1.488,-0.062 2.077,-0.188 0.576,-0.123 1.067,-0.286 1.479,-0.494 0.401,-0.204 0.735,-0.436 0.981,-0.71 l 0.012,-0.013 0.522,-0.72 0.024,-0.04 0.23,-0.705 0.012,-0.032 0.052,-0.528 0.004,-0.018 v -0.013 c 0,-0.496 -0.099,-0.941 -0.305,-1.314 l -0.002,-0.008 v 0.006 c -0.206,-0.364 -0.491,-0.674 -0.839,-0.921 -0.343,-0.238 -0.737,-0.439 -1.172,-0.598 -0.428,-0.15 -0.888,-0.281 -1.365,-0.391 h -0.002 l -3.248,-0.665 h -0.002 c -0.256,-0.052 -0.502,-0.113 -0.733,-0.191 l -0.099,0.296 0.142,-0.279 -0.59,-0.298 -0.395,-0.448 -0.23,0.209 0.267,-0.154 -0.118,-0.521 c 0,-0.366 0.082,-0.643 0.229,-0.875 l -0.263,-0.168 0.253,0.174 c 0.166,-0.235 0.375,-0.424 0.642,-0.576 0.265,-0.146 0.587,-0.263 0.966,-0.341 l -0.059,-0.303 0.052,0.305 c 0.388,-0.069 0.785,-0.104 1.201,-0.104 0.448,0 0.87,0.049 1.271,0.149 0.401,0.102 0.748,0.25 1.047,0.443 0.289,0.188 0.524,0.418 0.71,0.696 0.171,0.27 0.271,0.577 0.289,0.953 l 0.014,0.298 h 1.876 v -0.313 c 0,-0.62 -0.147,-1.181 -0.446,-1.661 v 0.002 -0.002 c -0.291,-0.464 -0.684,-0.864 -1.163,-1.178 -0.481,-0.309 -1.033,-0.539 -1.665,-0.692 -0.621,-0.149 -1.269,-0.229 -1.95,-0.229 -0.959,0.003 -1.757,0.117 -2.398,0.357 -0.623,0.235 -1.127,0.521 -1.508,0.876 l -0.003,0.002 v -0.002 c -0.374,0.352 -0.634,0.734 -0.782,1.151 v 0.003 c -0.134,0.386 -0.199,0.735 -0.204,1.05 0,0.476 0.102,0.899 0.294,1.253 0.187,0.336 0.439,0.626 0.744,0.858 0.305,0.228 0.652,0.41 1.045,0.542 0.376,0.126 0.767,0.234 1.161,0.322 h 0.002 l 2.961,0.604 c 0.305,0.059 0.601,0.139 0.917,0.232 0.309,0.091 0.58,0.213 0.82,0.352 l 0.56,0.49 c 0.126,0.176 0.188,0.369 0.19,0.626 -0.002,0.34 -0.094,0.604 -0.282,0.829 l -0.004,0.002 c -0.204,0.25 -0.464,0.457 -0.785,0.623 l 0.146,0.273 -0.141,-0.276 c -0.334,0.169 -0.684,0.289 -1.069,0.371 -0.393,0.077 -0.749,0.114 -1.071,0.114 -0.59,0 -1.139,-0.051 -1.654,-0.142 -0.502,-0.094 -0.933,-0.244 -1.284,-0.454 -0.352,-0.201 -0.614,-0.46 -0.813,-0.797 l -0.268,0.153" ns1:connector-curvature="0" fill="#FF4520" />
        <path id="path2198" d="m 255.837,224.02 c 0,1.342 -1.087,2.428 -2.432,2.428 -1.343,0 -2.43,-1.086 -2.43,-2.428 0,-1.339 1.087,-2.433 2.43,-2.433 1.345,0 2.432,1.094 2.432,2.433" ns1:connector-curvature="0" fill="#FFE500" />
        <path id="path2200" d="m 415.236,164.702 v 4.578 h -0.865 v -4.578 h -1.659 v -0.706 h 4.183 v 0.706 h -1.659 m 7.684,4.578 v -4.415 h -0.025 l -1.736,4.415 h -0.554 l -1.737,-4.415 h -0.027 v 4.415 h -0.867 v -5.284 h 1.35 l 1.575,4.018 1.554,-4.018 h 1.338 v 5.284 z" ns1:connector-curvature="0" fill="#FF9900" />
      </g>
    </g>
  </g>
  </svg>